<svg xmlns="http://www.w3.org/2000/svg" width="24" height="24" xmlns:v="https://vecta.io/nano"><path fill-rule="evenodd" d="M20.216 5.817a2.26 2.26 0 0 1 1.502-.658c.296-.01.591.04.868.147a2.21 2.21 0 0 1 .742.473c.213.206.382.452.498.725a2.2 2.2 0 0 1 .175.861c.002.462-.141.914-.408 1.292-.186.263-.426.482-.702.642-.217.126-.38.344-.38.595v2.478a1.19 1.19 0 0 1-1.194 1.185h-2.2c-.327 0-.592.265-.592.593v7.933c0 .509-.203.997-.563 1.356s-.849.562-1.359.562H4.129a1.9 1.9 0 0 1-.739-.139c-.235-.095-.448-.236-.627-.415s-.32-.391-.416-.626a1.89 1.89 0 0 1-.14-.738V1.918c0-.509.202-.997.563-1.356S3.619 0 4.129 0h12.474c.51 0 .998.202 1.359.562s.563.848.563 1.356v9.31c0 .327.265.593.592.593h1.361c.327 0 .593-.265.593-.593V9.896c0-.252-.164-.47-.382-.596-.285-.164-.532-.389-.723-.661a2.25 2.25 0 0 1-.408-1.323 2.25 2.25 0 0 1 .659-1.5zM9.293 11.375c-.327 0-.593.265-.593.593v2.756c0 .327.265.593.593.593h1.865c.327 0 .593-.265.593-.593v-2.756c0-.327-.265-.593-.593-.593H9.293zm-4.564 0c-.327 0-.593.265-.593.593v2.756c0 .327.265.593.593.593h1.865c.327 0 .593-.265.593-.593v-2.756c0-.327-.265-.593-.593-.593H4.729zM15.722 9.15c.327 0 .592-.265.592-.593v-5.66c0-.327-.265-.593-.592-.593H4.985c-.327 0-.593.265-.593.593v5.66c0 .327.265.593.593.593h10.736zm0 6.166c.327 0 .592-.265.592-.593v-2.756c0-.327-.265-.593-.592-.593h-1.865c-.327 0-.592.265-.592.593v2.756c0 .327.265.593.592.593h1.865zM4.729 18.356a.5.5 0 1 0 0 1h11.085a.5.5 0 1 0 0-1H4.729z" fill="currentColor"/></svg>