<svg xmlns="http://www.w3.org/2000/svg" width="24" height="24" xmlns:v="https://vecta.io/nano"><path d="M17.513 0H6.487C4.804 0 3.5 1.449 3.5 3.188v17.623C3.5 22.551 4.858 24 6.487 24h11.026c1.629 0 2.987-1.449 2.987-3.188V3.188C20.5 1.449 19.142 0 17.513 0zM6.324 5.217c-.489-.116-.815-.522-.815-1.043 0-1.101 1.249-2.029 1.629-2.261.054-.058.163-.058.217 0 .38.232 1.629 1.159 1.629 2.261 0 .522-.326.928-.76 1.043-.38.058-.706-.058-.923-.348-.272.29-.597.406-.978.348zm5.92 11.073c-.163.116-.38.116-.489 0-.978-.638-4.236-3.072-4.236-5.913 0-1.333.815-2.435 2.01-2.725.978-.174 1.901.232 2.444.928.543-.754 1.467-1.159 2.498-.928 1.195.232 2.064 1.391 2.01 2.725-.054 2.841-3.313 5.275-4.236 5.913zm4.562 5.797c-.054.058-.163.058-.217 0-.38-.232-1.629-1.16-1.629-2.261 0-.522.326-.928.76-1.044.38-.058.706.058.923.348.217-.29.597-.464.978-.348.489.116.76.522.76 1.044.054 1.101-1.195 2.029-1.575 2.261z" fill="currentColor"/></svg>