<svg xmlns="http://www.w3.org/2000/svg" fill="currentColor" viewBox="0 0 24 24"><path d="M12 3.75a2.751 2.751 0 0 1 5.5 0C17.5 6.5 12 12 12 12l-.152-.155L12 12s-.162.162-.445.432l-.014.027-.177-.172C11.639 11.998 12 12 12 12s.103.103.28.287l-.119.136c-.186-.18-.16-.423-.16-.423s5.5-5.5 8.25-5.5a2.751 2.751 0 0 1 0 5.5 2.751 2.751 0 0 1 0 5.5c-2.29 0-6.5-3.801-7.84-5.077 1.275 1.34 5.09 5.537 5.09 7.827a2.751 2.751 0 0 1-5.5 0 2.751 2.751 0 0 1-5.5 0c0-.987.708-2.328 1.616-3.642l-6.482 6.32L1 22.265l6.973-6.798c-1.49 1.098-3.09 2.032-4.222 2.032A2.751 2.751 0 0 1 1 14.75 2.751 2.751 0 0 1 3.75 12 2.751 2.751 0 0 1 1 9.25 2.751 2.751 0 0 1 3.75 6.5c2.411 0 6.938 4.23 8.015 5.27v.026C10.725 10.719 6.5 6.162 6.5 3.75a2.751 2.751 0 0 1 5.5 0Z"/></svg>