<svg viewBox="0 0 24 24" xmlns="http://www.w3.org/2000/svg"><path d="M12 0C5.373 0 0 5.373 0 12s5.373 12 12 12 12-5.373 12-12S18.627 0 12 0ZM3.496 5.853a10.545 10.545 0 0 1 4.117-3.387 1.029 1.029 0 0 1 .86 1.868 8.476 8.476 0 0 0-3.31 2.724 1.028 1.028 0 0 1-1.667-1.205ZM4.96 18.405a1.027 1.027 0 0 1-1.437-.224 10.473 10.473 0 0 1-1.944-4.966 1.028 1.028 0 1 1 2.044-.236 8.412 8.412 0 0 0 1.561 3.99 1.029 1.029 0 0 1-.224 1.436Zm10.29 3.575a10.558 10.558 0 0 1-5.32.309 1.028 1.028 0 0 1 .404-2.016 8.535 8.535 0 0 0 4.28-.248 1.029 1.029 0 0 1 .636 1.955ZM12 18.871A6.87 6.87 0 1 1 12 5.13a6.87 6.87 0 0 1 0 13.741Zm6.195-12.597a8.462 8.462 0 0 0-3.614-2.308 1.028 1.028 0 1 1 .63-1.958 10.52 10.52 0 0 1 4.494 2.87 1.03 1.03 0 0 1-1.51 1.396Zm2.944 10.884a1.029 1.029 0 0 1-1.79-1.013A8.437 8.437 0 0 0 20.436 12c0-.567.46-1.047 1.028-1.047.568 0 1.028.44 1.028 1.008v.01c0 1.838-.467 3.622-1.353 5.188Z"/></svg>